<?xml version="1.0" encoding="UTF-8" standalone="no"?>
<!DOCTYPE svg PUBLIC "-//W3C//DTD SVG 1.1//EN"
 "http://www.w3.org/Graphics/SVG/1.1/DTD/svg11.dtd">
<!-- Generated by graphviz version 2.43.0 (0)
 -->
<!-- Title: %3 Pages: 1 -->
<svg width="469pt" height="131pt"
 viewBox="0.00 0.00 468.99 131.00" xmlns="http://www.w3.org/2000/svg" xmlns:xlink="http://www.w3.org/1999/xlink">
<g id="graph0" class="graph" transform="scale(1 1) rotate(0) translate(4 127)">
<title>%3</title>
<polygon fill="white" stroke="transparent" points="-4,4 -4,-127 464.99,-127 464.99,4 -4,4"/>
<!-- D -->
<g id="node1" class="node">
<title>D</title>
<ellipse fill="none" stroke="black" cx="251.39" cy="-105" rx="53.89" ry="18"/>
<text text-anchor="middle" x="251.39" y="-101.3" font-family="Times,serif" font-size="14.00">Database</text>
</g>
<!-- M -->
<g id="node2" class="node">
<title>M</title>
<ellipse fill="none" stroke="black" cx="88.39" cy="-18" rx="88.28" ry="18"/>
<text text-anchor="middle" x="88.39" y="-14.3" font-family="Times,serif" font-size="14.00">MySQLDatabase</text>
</g>
<!-- D&#45;&gt;M -->
<g id="edge1" class="edge">
<title>D&#45;&gt;M</title>
<path fill="none" stroke="black" d="M214.65,-91.62C198.28,-85.58 178.99,-77.74 162.39,-69 147.31,-61.06 131.54,-50.72 118.45,-41.51"/>
<polygon fill="black" stroke="black" points="120.43,-38.63 110.27,-35.65 116.36,-44.32 120.43,-38.63"/>
<text text-anchor="middle" x="204.89" y="-57.8" font-family="Times,serif" font-size="14.00">Implements</text>
</g>
<!-- O -->
<g id="node3" class="node">
<title>O</title>
<ellipse fill="none" stroke="black" cx="251.39" cy="-18" rx="56.59" ry="18"/>
<text text-anchor="middle" x="251.39" y="-14.3" font-family="Times,serif" font-size="14.00">MongoDB</text>
</g>
<!-- D&#45;&gt;O -->
<g id="edge2" class="edge">
<title>D&#45;&gt;O</title>
<path fill="none" stroke="black" d="M251.39,-86.8C251.39,-75.16 251.39,-59.55 251.39,-46.24"/>
<polygon fill="black" stroke="black" points="254.89,-46.18 251.39,-36.18 247.89,-46.18 254.89,-46.18"/>
<text text-anchor="middle" x="293.89" y="-57.8" font-family="Times,serif" font-size="14.00">Implements</text>
</g>
<!-- U -->
<g id="node4" class="node">
<title>U</title>
<ellipse fill="none" stroke="black" cx="393.39" cy="-18" rx="67.69" ry="18"/>
<text text-anchor="middle" x="393.39" y="-14.3" font-family="Times,serif" font-size="14.00">UserService</text>
</g>
<!-- D&#45;&gt;U -->
<g id="edge3" class="edge">
<title>D&#45;&gt;U</title>
<path fill="none" stroke="black" d="M290.17,-92.38C306.37,-86.62 324.97,-78.79 340.39,-69 351.57,-61.9 362.47,-52.25 371.45,-43.32"/>
<polygon fill="black" stroke="black" points="374.05,-45.67 378.51,-36.06 369.03,-40.79 374.05,-45.67"/>
<text text-anchor="middle" x="377.39" y="-57.8" font-family="Times,serif" font-size="14.00">Uses</text>
</g>
</g>
</svg>
