<?xml version="1.0" encoding="UTF-8" standalone="no"?>
<!DOCTYPE svg PUBLIC "-//W3C//DTD SVG 1.1//EN"
 "http://www.w3.org/Graphics/SVG/1.1/DTD/svg11.dtd">
<!-- Generated by graphviz version 2.43.0 (0)
 -->
<!-- Title: %3 Pages: 1 -->
<svg width="333pt" height="131pt"
 viewBox="0.00 0.00 333.35 131.00" xmlns="http://www.w3.org/2000/svg" xmlns:xlink="http://www.w3.org/1999/xlink">
<g id="graph0" class="graph" transform="scale(1 1) rotate(0) translate(4 127)">
<title>%3</title>
<polygon fill="white" stroke="transparent" points="-4,4 -4,-127 329.35,-127 329.35,4 -4,4"/>
<!-- W -->
<g id="node1" class="node">
<title>W</title>
<ellipse fill="none" stroke="black" cx="87.35" cy="-105" rx="53.89" ry="18"/>
<text text-anchor="middle" x="87.35" y="-101.3" font-family="Times,serif" font-size="14.00">Workable</text>
</g>
<!-- H -->
<g id="node3" class="node">
<title>H</title>
<ellipse fill="none" stroke="black" cx="200.35" cy="-18" rx="44.39" ry="18"/>
<text text-anchor="middle" x="200.35" y="-14.3" font-family="Times,serif" font-size="14.00">Human</text>
</g>
<!-- W&#45;&gt;H -->
<g id="edge1" class="edge">
<title>W&#45;&gt;H</title>
<path fill="none" stroke="black" d="M103.83,-87.86C114.65,-77.64 129.34,-64.43 143.35,-54 150.66,-48.56 158.84,-43.17 166.68,-38.3"/>
<polygon fill="black" stroke="black" points="168.58,-41.24 175.31,-33.06 164.95,-35.26 168.58,-41.24"/>
<text text-anchor="middle" x="185.85" y="-57.8" font-family="Times,serif" font-size="14.00">Implements</text>
</g>
<!-- R -->
<g id="node4" class="node">
<title>R</title>
<ellipse fill="none" stroke="black" cx="38.35" cy="-18" rx="38.19" ry="18"/>
<text text-anchor="middle" x="38.35" y="-14.3" font-family="Times,serif" font-size="14.00">Robot</text>
</g>
<!-- W&#45;&gt;R -->
<g id="edge3" class="edge">
<title>W&#45;&gt;R</title>
<path fill="none" stroke="black" d="M58.89,-89.67C51.16,-84.3 43.73,-77.41 39.35,-69 35.76,-62.12 34.56,-53.95 34.51,-46.23"/>
<polygon fill="black" stroke="black" points="38.01,-46.31 35.04,-36.14 31.02,-45.94 38.01,-46.31"/>
<text text-anchor="middle" x="81.85" y="-57.8" font-family="Times,serif" font-size="14.00">Implements</text>
</g>
<!-- E -->
<g id="node2" class="node">
<title>E</title>
<ellipse fill="none" stroke="black" cx="254.35" cy="-105" rx="46.29" ry="18"/>
<text text-anchor="middle" x="254.35" y="-101.3" font-family="Times,serif" font-size="14.00">Eatable</text>
</g>
<!-- E&#45;&gt;H -->
<g id="edge2" class="edge">
<title>E&#45;&gt;H</title>
<path fill="none" stroke="black" d="M248.5,-87.09C244.65,-77.06 239.08,-64.33 232.35,-54 229.8,-50.09 226.81,-46.2 223.71,-42.51"/>
<polygon fill="black" stroke="black" points="226.11,-39.94 216.83,-34.81 220.89,-44.6 226.11,-39.94"/>
<text text-anchor="middle" x="282.85" y="-57.8" font-family="Times,serif" font-size="14.00">Implements</text>
</g>
</g>
</svg>
