<?xml version="1.0" encoding="UTF-8" standalone="no"?>
<!DOCTYPE svg PUBLIC "-//W3C//DTD SVG 1.1//EN"
 "http://www.w3.org/Graphics/SVG/1.1/DTD/svg11.dtd">
<!-- Generated by graphviz version 2.43.0 (0)
 -->
<!-- Title: %3 Pages: 1 -->
<svg width="419pt" height="131pt"
 viewBox="0.00 0.00 419.19 131.00" xmlns="http://www.w3.org/2000/svg" xmlns:xlink="http://www.w3.org/1999/xlink">
<g id="graph0" class="graph" transform="scale(1 1) rotate(0) translate(4 127)">
<title>%3</title>
<polygon fill="white" stroke="transparent" points="-4,4 -4,-127 415.19,-127 415.19,4 -4,4"/>
<!-- S -->
<g id="node1" class="node">
<title>S</title>
<ellipse fill="none" stroke="black" cx="171.19" cy="-105" rx="39.79" ry="18"/>
<text text-anchor="middle" x="171.19" y="-101.3" font-family="Times,serif" font-size="14.00">Shape</text>
</g>
<!-- R -->
<g id="node2" class="node">
<title>R</title>
<ellipse fill="none" stroke="black" cx="57.19" cy="-18" rx="57.39" ry="18"/>
<text text-anchor="middle" x="57.19" y="-14.3" font-family="Times,serif" font-size="14.00">Rectangle</text>
</g>
<!-- S&#45;&gt;R -->
<g id="edge1" class="edge">
<title>S&#45;&gt;R</title>
<path fill="none" stroke="black" d="M151.34,-89.19C133.4,-75.82 106.76,-55.96 86.39,-40.77"/>
<polygon fill="black" stroke="black" points="88.48,-37.96 78.37,-34.79 84.3,-43.57 88.48,-37.96"/>
</g>
<!-- C -->
<g id="node3" class="node">
<title>C</title>
<ellipse fill="none" stroke="black" cx="171.19" cy="-18" rx="38.19" ry="18"/>
<text text-anchor="middle" x="171.19" y="-14.3" font-family="Times,serif" font-size="14.00">Circle</text>
</g>
<!-- S&#45;&gt;C -->
<g id="edge2" class="edge">
<title>S&#45;&gt;C</title>
<path fill="none" stroke="black" d="M171.19,-86.8C171.19,-75.16 171.19,-59.55 171.19,-46.24"/>
<polygon fill="black" stroke="black" points="174.7,-46.18 171.19,-36.18 167.7,-46.18 174.7,-46.18"/>
</g>
<!-- T -->
<g id="node4" class="node">
<title>T</title>
<ellipse fill="none" stroke="black" cx="277.19" cy="-18" rx="49.29" ry="18"/>
<text text-anchor="middle" x="277.19" y="-14.3" font-family="Times,serif" font-size="14.00">Triangle</text>
</g>
<!-- S&#45;&gt;T -->
<g id="edge3" class="edge">
<title>S&#45;&gt;T</title>
<path fill="none" stroke="black" d="M190.15,-88.8C206.75,-75.49 231.07,-55.99 249.79,-40.97"/>
<polygon fill="black" stroke="black" points="252.08,-43.63 257.69,-34.64 247.7,-38.17 252.08,-43.63"/>
<text text-anchor="middle" x="321.19" y="-57.8" font-family="Times,serif" font-size="14.00">Modify to add new shape</text>
</g>
</g>
</svg>
