<?xml version="1.0" encoding="UTF-8" standalone="no"?>
<!DOCTYPE svg PUBLIC "-//W3C//DTD SVG 1.1//EN"
 "http://www.w3.org/Graphics/SVG/1.1/DTD/svg11.dtd">
<!-- Generated by graphviz version 2.43.0 (0)
 -->
<!-- Title: %3 Pages: 1 -->
<svg width="103pt" height="131pt"
 viewBox="0.00 0.00 102.89 131.00" xmlns="http://www.w3.org/2000/svg" xmlns:xlink="http://www.w3.org/1999/xlink">
<g id="graph0" class="graph" transform="scale(1 1) rotate(0) translate(4 127)">
<title>%3</title>
<polygon fill="white" stroke="transparent" points="-4,4 -4,-127 98.89,-127 98.89,4 -4,4"/>
<!-- Teacher -->
<g id="node1" class="node">
<title>Teacher</title>
<ellipse fill="none" stroke="black" cx="47.45" cy="-105" rx="47.39" ry="18"/>
<text text-anchor="middle" x="47.45" y="-101.3" font-family="Times,serif" font-size="14.00">Teacher</text>
</g>
<!-- Course -->
<g id="node2" class="node">
<title>Course</title>
<ellipse fill="none" stroke="black" cx="47.45" cy="-18" rx="43.59" ry="18"/>
<text text-anchor="middle" x="47.45" y="-14.3" font-family="Times,serif" font-size="14.00">Course</text>
</g>
<!-- Teacher&#45;&gt;Course -->
<g id="edge1" class="edge">
<title>Teacher&#45;&gt;Course</title>
<path fill="none" stroke="black" d="M33.82,-87.56C30.03,-82.01 26.4,-75.55 24.45,-69 21.93,-60.58 24.19,-51.75 28.12,-43.9"/>
<polygon fill="black" stroke="black" points="31.19,-45.59 33.32,-35.21 25.18,-42 31.19,-45.59"/>
<text text-anchor="middle" x="36.95" y="-57.8" font-family="Times,serif" font-size="14.00">1..*</text>
</g>
<!-- Course&#45;&gt;Teacher -->
<g id="edge2" class="edge">
<title>Course&#45;&gt;Teacher</title>
<path fill="none" stroke="black" d="M48.62,-36.08C48.96,-41.78 49.28,-48.16 49.45,-54 49.66,-61.35 49.51,-69.31 49.22,-76.67"/>
<polygon fill="black" stroke="black" points="45.71,-76.72 48.71,-86.88 52.7,-77.06 45.71,-76.72"/>
<text text-anchor="middle" x="54.45" y="-57.8" font-family="Times,serif" font-size="14.00">1</text>
</g>
</g>
</svg>
