<?xml version="1.0" encoding="UTF-8" standalone="no"?>
<!DOCTYPE svg PUBLIC "-//W3C//DTD SVG 1.1//EN"
 "http://www.w3.org/Graphics/SVG/1.1/DTD/svg11.dtd">
<!-- Generated by graphviz version 2.43.0 (0)
 -->
<!-- Title: %3 Pages: 1 -->
<svg width="453pt" height="131pt"
 viewBox="0.00 0.00 453.20 131.00" xmlns="http://www.w3.org/2000/svg" xmlns:xlink="http://www.w3.org/1999/xlink">
<g id="graph0" class="graph" transform="scale(1 1) rotate(0) translate(4 127)">
<title>%3</title>
<polygon fill="white" stroke="transparent" points="-4,4 -4,-127 449.2,-127 449.2,4 -4,4"/>
<!-- W -->
<g id="node1" class="node">
<title>W</title>
<ellipse fill="none" stroke="black" cx="98.2" cy="-105" rx="44.39" ry="18"/>
<text text-anchor="middle" x="98.2" y="-101.3" font-family="Times,serif" font-size="14.00">Worker</text>
</g>
<!-- H -->
<g id="node2" class="node">
<title>H</title>
<ellipse fill="none" stroke="black" cx="44.2" cy="-18" rx="44.39" ry="18"/>
<text text-anchor="middle" x="44.2" y="-14.3" font-family="Times,serif" font-size="14.00">Human</text>
</g>
<!-- W&#45;&gt;H -->
<g id="edge1" class="edge">
<title>W&#45;&gt;H</title>
<path fill="none" stroke="black" d="M68.79,-91.44C59.58,-85.96 50.46,-78.56 45.2,-69 41.45,-62.2 40.2,-54.06 40.16,-46.33"/>
<polygon fill="black" stroke="black" points="43.66,-46.41 40.73,-36.23 36.67,-46.02 43.66,-46.41"/>
<text text-anchor="middle" x="87.7" y="-57.8" font-family="Times,serif" font-size="14.00">Implements</text>
</g>
<!-- R -->
<g id="node3" class="node">
<title>R</title>
<ellipse fill="none" stroke="black" cx="152.2" cy="-18" rx="38.19" ry="18"/>
<text text-anchor="middle" x="152.2" y="-14.3" font-family="Times,serif" font-size="14.00">Robot</text>
</g>
<!-- W&#45;&gt;R -->
<g id="edge2" class="edge">
<title>W&#45;&gt;R</title>
<path fill="none" stroke="black" d="M114.68,-88.19C120.07,-82.47 125.79,-75.76 130.2,-69 134.93,-61.74 139.09,-53.29 142.48,-45.42"/>
<polygon fill="black" stroke="black" points="145.82,-46.49 146.35,-35.91 139.34,-43.85 145.82,-46.49"/>
<text text-anchor="middle" x="291.7" y="-57.8" font-family="Times,serif" font-size="14.00">Implements (including unwanted methods)</text>
</g>
</g>
</svg>
