<?xml version="1.0" encoding="UTF-8" standalone="no"?>
<!DOCTYPE svg PUBLIC "-//W3C//DTD SVG 1.1//EN"
 "http://www.w3.org/Graphics/SVG/1.1/DTD/svg11.dtd">
<!-- Generated by graphviz version 2.43.0 (0)
 -->
<!-- Title: %3 Pages: 1 -->
<svg width="242pt" height="218pt"
 viewBox="0.00 0.00 241.89 218.00" xmlns="http://www.w3.org/2000/svg" xmlns:xlink="http://www.w3.org/1999/xlink">
<g id="graph0" class="graph" transform="scale(1 1) rotate(0) translate(4 214)">
<title>%3</title>
<polygon fill="white" stroke="transparent" points="-4,4 -4,-214 237.89,-214 237.89,4 -4,4"/>
<!-- B -->
<g id="node1" class="node">
<title>B</title>
<ellipse fill="none" stroke="black" cx="122.79" cy="-192" rx="30.59" ry="18"/>
<text text-anchor="middle" x="122.79" y="-188.3" font-family="Times,serif" font-size="14.00">Bird</text>
</g>
<!-- F -->
<g id="node2" class="node">
<title>F</title>
<ellipse fill="none" stroke="black" cx="59.79" cy="-105" rx="59.59" ry="18"/>
<text text-anchor="middle" x="59.79" y="-101.3" font-family="Times,serif" font-size="14.00">FlyingBird</text>
</g>
<!-- B&#45;&gt;F -->
<g id="edge1" class="edge">
<title>B&#45;&gt;F</title>
<path fill="none" stroke="black" d="M110.94,-175.01C101.79,-162.67 88.96,-145.35 78.44,-131.15"/>
<polygon fill="black" stroke="black" points="81,-128.74 72.24,-122.79 75.38,-132.91 81,-128.74"/>
<text text-anchor="middle" x="124.29" y="-144.8" font-family="Times,serif" font-size="14.00">Inherits</text>
</g>
<!-- P -->
<g id="node4" class="node">
<title>P</title>
<ellipse fill="none" stroke="black" cx="185.79" cy="-105" rx="48.19" ry="18"/>
<text text-anchor="middle" x="185.79" y="-101.3" font-family="Times,serif" font-size="14.00">Penguin</text>
</g>
<!-- B&#45;&gt;P -->
<g id="edge3" class="edge">
<title>B&#45;&gt;P</title>
<path fill="none" stroke="black" d="M138.55,-176.41C144.61,-170.39 151.37,-163.16 156.79,-156 162.46,-148.53 167.85,-139.85 172.41,-131.84"/>
<polygon fill="black" stroke="black" points="175.6,-133.3 177.36,-122.86 169.47,-129.93 175.6,-133.3"/>
<text text-anchor="middle" x="194.29" y="-144.8" font-family="Times,serif" font-size="14.00">Inherits</text>
</g>
<!-- S -->
<g id="node3" class="node">
<title>S</title>
<ellipse fill="none" stroke="black" cx="59.79" cy="-18" rx="50.09" ry="18"/>
<text text-anchor="middle" x="59.79" y="-14.3" font-family="Times,serif" font-size="14.00">Sparrow</text>
</g>
<!-- F&#45;&gt;S -->
<g id="edge2" class="edge">
<title>F&#45;&gt;S</title>
<path fill="none" stroke="black" d="M59.79,-86.8C59.79,-75.16 59.79,-59.55 59.79,-46.24"/>
<polygon fill="black" stroke="black" points="63.29,-46.18 59.79,-36.18 56.29,-46.18 63.29,-46.18"/>
<text text-anchor="middle" x="88.29" y="-57.8" font-family="Times,serif" font-size="14.00">Inherits</text>
</g>
</g>
</svg>
