<?xml version="1.0" encoding="UTF-8" standalone="no"?>
<!DOCTYPE svg PUBLIC "-//W3C//DTD SVG 1.1//EN"
 "http://www.w3.org/Graphics/SVG/1.1/DTD/svg11.dtd">
<!-- Generated by graphviz version 2.43.0 (0)
 -->
<!-- Title: %3 Pages: 1 -->
<svg width="222pt" height="131pt"
 viewBox="0.00 0.00 222.19 131.00" xmlns="http://www.w3.org/2000/svg" xmlns:xlink="http://www.w3.org/1999/xlink">
<g id="graph0" class="graph" transform="scale(1 1) rotate(0) translate(4 127)">
<title>%3</title>
<polygon fill="white" stroke="transparent" points="-4,4 -4,-127 218.19,-127 218.19,4 -4,4"/>
<!-- S -->
<g id="node1" class="node">
<title>S</title>
<ellipse fill="none" stroke="black" cx="114.19" cy="-105" rx="39.79" ry="18"/>
<text text-anchor="middle" x="114.19" y="-101.3" font-family="Times,serif" font-size="14.00">Shape</text>
</g>
<!-- R -->
<g id="node2" class="node">
<title>R</title>
<ellipse fill="none" stroke="black" cx="57.19" cy="-18" rx="57.39" ry="18"/>
<text text-anchor="middle" x="57.19" y="-14.3" font-family="Times,serif" font-size="14.00">Rectangle</text>
</g>
<!-- S&#45;&gt;R -->
<g id="edge1" class="edge">
<title>S&#45;&gt;R</title>
<path fill="none" stroke="black" d="M103.2,-87.61C95.03,-75.42 83.72,-58.56 74.36,-44.6"/>
<polygon fill="black" stroke="black" points="77.02,-42.28 68.54,-35.92 71.2,-46.18 77.02,-42.28"/>
<text text-anchor="middle" x="117.69" y="-57.8" font-family="Times,serif" font-size="14.00">Inherits</text>
</g>
<!-- C -->
<g id="node3" class="node">
<title>C</title>
<ellipse fill="none" stroke="black" cx="171.19" cy="-18" rx="38.19" ry="18"/>
<text text-anchor="middle" x="171.19" y="-14.3" font-family="Times,serif" font-size="14.00">Circle</text>
</g>
<!-- S&#45;&gt;C -->
<g id="edge2" class="edge">
<title>S&#45;&gt;C</title>
<path fill="none" stroke="black" d="M131.94,-88.75C137.94,-82.98 144.34,-76.09 149.19,-69 154.09,-61.85 158.29,-53.43 161.68,-45.56"/>
<polygon fill="black" stroke="black" points="165.03,-46.6 165.51,-36.02 158.53,-43.99 165.03,-46.6"/>
<text text-anchor="middle" x="185.69" y="-57.8" font-family="Times,serif" font-size="14.00">Inherits</text>
</g>
</g>
</svg>
